<?xml version="1.0" encoding="UTF-8" standalone="no"?>
<!-- Created with Inkscape (http://www.inkscape.org/) -->

<svg
   width="70"
   height="70"
   viewBox="0 0 18.520833 18.520834"
   version="1.1"
   id="svg1394"
   inkscape:version="1.1.2 (0a00cf5339, 2022-02-04)"
   sodipodi:docname="s.svg"
   xmlns:inkscape="http://www.inkscape.org/namespaces/inkscape"
   xmlns:sodipodi="http://sodipodi.sourceforge.net/DTD/sodipodi-0.dtd"
   xmlns="http://www.w3.org/2000/svg"
   xmlns:svg="http://www.w3.org/2000/svg">
  <sodipodi:namedview
     id="namedview1396"
     pagecolor="#aaccd5"
     bordercolor="#666666"
     borderopacity="1.0"
     inkscape:pageshadow="2"
     inkscape:pageopacity="0"
     inkscape:pagecheckerboard="0"
     inkscape:document-units="mm"
     showgrid="false"
     units="px"
     inkscape:zoom="4.6823232"
     inkscape:cx="33.21001"
     inkscape:cy="71.011757"
     inkscape:window-width="1920"
     inkscape:window-height="1030"
     inkscape:window-x="0"
     inkscape:window-y="24"
     inkscape:window-maximized="1"
     inkscape:current-layer="layer1" />
  <defs
     id="defs1391" />
  <g
     inkscape:label="Capa 1"
     inkscape:groupmode="layer"
     id="layer1">
    <circle
       style="fill:#000000;fill-opacity:0.15;stroke:none;stroke-width:1.16896;stroke-linejoin:round;stroke-miterlimit:4;stroke-dasharray:none;paint-order:fill markers stroke"
       id="path1179"
       cx="9.2226524"
       cy="9.2976704"
       r="8.6892128" />
    <path
       style="color:#000000;fill:#ffffff;stroke-width:0.413836;stroke-linejoin:round;-inkscape-stroke:none;paint-order:fill markers stroke"
       d="M 6.7310366,3.3923517 C 5.964461,3.7172546 5.2735578,4.1872581 4.6930537,4.7676608 3.5320455,5.9284662 2.812634,7.5308683 2.812634,9.297255 c 0,3.532773 2.877646,6.410415 6.4104194,6.410415 3.5327696,0 6.4096086,-2.877642 6.4096086,-6.410415 0,-1.7663867 -0.71921,-3.3687888 -1.880016,-4.5295942 C 13.172243,4.1872581 12.481441,3.7172546 11.714942,3.3923517 l -0.477046,1.1418762 c 0.618657,0.2609303 1.175238,0.6386479 1.642387,1.1057971 0.934299,0.9342985 1.510871,2.2263236 1.510871,3.65723 0,2.861813 -2.306288,5.168907 -5.1681006,5.168907 -2.8618127,0 -5.1689114,-2.307094 -5.1689114,-5.168907 0,-1.4309064 0.5767747,-2.7229315 1.5112759,-3.65723 C 6.0326686,5.1728758 6.5893508,4.7951582 7.2080838,4.5342279 Z"
       id="path856"
       sodipodi:nodetypes="csssssccssssscc" />
    <rect
       style="fill:#ffffff;fill-opacity:1;stroke:none;stroke-width:1;stroke-linecap:round;stroke-linejoin:round;stroke-miterlimit:4;stroke-dasharray:none;stroke-opacity:1;paint-order:fill markers stroke"
       id="rect3098"
       width="1.3549452"
       height="7.5367785"
       x="8.5451803"
       y="1.8587525" />
  </g>
</svg>
